<svg width="17" height="18" viewBox="0 0 17 18" fill="none" xmlns="http://www.w3.org/2000/svg">
<path d="M14.3335 5.19999L2.5002 17.0667C2.23353 17.3333 1.91664 17.4667 1.54953 17.4667C1.18242 17.4667 0.865973 17.3333 0.600195 17.0667C0.333528 16.8 0.200195 16.4831 0.200195 16.116C0.200195 15.7489 0.333528 15.4324 0.600195 15.1667L12.4669 3.33333H2.33353C1.95575 3.33333 1.63886 3.20533 1.38286 2.94933C1.12686 2.69333 0.999306 2.37688 1.0002 1.99999C1.0002 1.62222 1.1282 1.30533 1.3842 1.04933C1.6402 0.793328 1.95664 0.665772 2.33353 0.666661H15.6669C16.0446 0.666661 16.3615 0.794661 16.6175 1.05066C16.8735 1.30666 17.0011 1.62311 17.0002 1.99999V15.3333C17.0002 15.7111 16.8722 16.028 16.6162 16.284C16.3602 16.54 16.0438 16.6675 15.6669 16.6667C15.2891 16.6667 14.9722 16.5387 14.7162 16.2827C14.4602 16.0267 14.3326 15.7102 14.3335 15.3333V5.19999Z" fill="white"/>
</svg>
