<svg width="28" height="28" viewBox="0 0 28 28" fill="none" xmlns="http://www.w3.org/2000/svg">
<path fill-rule="evenodd" clip-rule="evenodd" d="M25.2134 11.1467C25.1357 11.1429 25.0579 11.1416 24.9801 11.1427H21.7334C19.0774 11.1427 16.8027 13.2507 16.8027 16C16.8027 18.7493 19.0774 20.8573 21.7347 20.8573H24.9787C25.0601 20.8573 25.1387 20.8573 25.2121 20.852C25.7603 20.817 26.2771 20.5838 26.6662 20.196C27.0552 19.8082 27.29 19.2921 27.3267 18.744C27.3321 18.6653 27.3321 18.5813 27.3321 18.504V13.496C27.3321 13.4187 27.3321 13.3347 27.3267 13.256C27.29 12.7081 27.0554 12.1922 26.6667 11.8044C26.2779 11.4166 25.7614 11.1833 25.2134 11.148V11.1467ZM21.4494 17.2947C22.1334 17.2947 22.6894 16.716 22.6894 16C22.6894 15.284 22.1334 14.7053 21.4494 14.7053C20.7654 14.7053 20.2107 15.284 20.2107 16C20.2107 16.716 20.7641 17.2947 21.4494 17.2947Z" fill="white"/>
<path fill-rule="evenodd" clip-rule="evenodd" d="M24.9785 22.8C25.0232 22.7985 25.0676 22.8074 25.1082 22.8262C25.1487 22.8449 25.1843 22.8729 25.2121 22.9079C25.2399 22.943 25.259 22.984 25.268 23.0278C25.277 23.0716 25.2756 23.1169 25.2638 23.16C25.0052 24.0827 24.5958 24.8694 23.9385 25.5307C22.9772 26.5 21.7572 26.9307 20.2505 27.1347C18.7865 27.3334 16.9172 27.3334 14.5545 27.3334H11.8385C9.47717 27.3334 7.6065 27.3334 6.1425 27.1347C4.63584 26.9307 3.41584 26.5 2.4545 25.5307C1.49317 24.5627 1.0665 23.3334 0.863837 21.8147C0.666504 20.3387 0.666504 18.4534 0.666504 16.0734V15.9267C0.666504 13.5467 0.666504 11.66 0.863837 10.1854C1.0665 8.66669 1.49317 7.44002 2.45317 6.46802C3.4145 5.50002 4.6345 5.06802 6.14117 4.86535C7.6065 4.66669 9.47717 4.66669 11.8385 4.66669H14.5545C16.9158 4.66669 18.7865 4.66669 20.2505 4.86535C21.7572 5.06935 22.9772 5.50002 23.9385 6.46802C24.5958 7.13069 25.0052 7.91735 25.2638 8.84135C25.2753 8.8844 25.2765 8.92953 25.2674 8.97314C25.2583 9.01675 25.2392 9.05762 25.2114 9.09249C25.1837 9.12735 25.1482 9.15523 25.1077 9.17391C25.0673 9.19258 25.023 9.20152 24.9785 9.20002H21.7345C18.0892 9.20002 14.8772 12.1027 14.8772 16C14.8772 19.8974 18.0905 22.8 21.7358 22.8H24.9785ZM5.48517 9.84802C5.35823 9.84854 5.23263 9.87407 5.11555 9.92313C4.99847 9.9722 4.8922 10.0438 4.8028 10.134C4.71341 10.2241 4.64265 10.331 4.59455 10.4485C4.54646 10.5659 4.52198 10.6917 4.5225 10.8187C4.5225 11.356 4.95317 11.7907 5.48517 11.7907H10.6265C11.1598 11.7907 11.5905 11.356 11.5905 10.8187C11.5912 10.5622 11.4901 10.3159 11.3093 10.1339C11.1286 9.9519 10.883 9.84908 10.6265 9.84802H5.48517Z" fill="white"/>
<path d="M8.36914 3.36534L10.9798 1.44134C11.6611 0.937696 12.4859 0.665894 13.3331 0.665894C14.1804 0.665894 15.0052 0.937696 15.6865 1.44134L18.3118 3.37601C17.2131 3.33334 15.9865 3.33334 14.6438 3.33334H11.7505C10.5211 3.33334 9.39181 3.33334 8.36914 3.36534Z" fill="white"/>
</svg>
